<svg xmlns="http://www.w3.org/2000/svg" id="group-1" viewBox="0 0 26 26">
    <defs>
        <style>
            .cls-1{fill:#fff}
        </style>
    </defs>
    <g id="group">
        <path id="path" d="M33.091 35.7H30.7l11.62 12.174h2.391z" class="cls-1" transform="translate(-25.303 -29.428)"/>
        <path id="path-2" d="M26 13a13 13 0 1 0-12.991 13 12.865 12.865 0 0 0 7.612-2.459l.334-.228h-2.918l-.053.018a11.2 11.2 0 0 1-4.957 1.124A11.454 11.454 0 1 1 24.453 13a11.585 11.585 0 0 1-1.16 5.042h-6.68l1.617 1.686h5.907l.035-.07c0-.018.018-.018.018-.035a9.14 9.14 0 0 0 .387-.72l.105-.211c.088-.158.158-.334.229-.492l.089-.176A13.207 13.207 0 0 0 26 13z" class="cls-1" data-name="path"/>
        <path id="path-3" d="M43.533 35.7L30.7 49.157h2.391L45.906 35.7z" class="cls-1" data-name="path" transform="translate(-25.303 -29.428)"/>
    </g>
</svg>
